HIERARCHY
ROOT Hips
{
	OFFSET -0.001795 -0.223333 0.028219
	CHANNELS 6 Xposition Yposition Zposition Zrotation Yrotation Xrotation 
	JOINT LeftUpLeg
	{
		OFFSET 0.069520 -0.091406 -0.006815
		CHANNELS 3 Zrotation Yrotation Xrotation
		JOINT LeftLeg
		{
			OFFSET 0.034277 -0.375199 -0.004496
			CHANNELS 3 Zrotation Yrotation Xrotation
			JOINT LeftFoot
			{
				OFFSET -0.013596 -0.397961 -0.043693
				CHANNELS 3 Zrotation Yrotation Xrotation
				JOINT LeftToe
				{
					OFFSET 0.026358 -0.055791 0.119288
					CHANNELS 3 Zrotation Yrotation Xrotation
					End Site
					{
						OFFSET 0.000000 0.000000 0.000000
					}
				}
			}
		}
	}
	JOINT RightUpLeg
	{
		OFFSET -0.067670 -0.090522 -0.004320
		CHANNELS 3 Zrotation Yrotation Xrotation
		JOINT RightLeg
		{
			OFFSET -0.038290 -0.382569 -0.008850
			CHANNELS 3 Zrotation Yrotation Xrotation
			JOINT RightFoot
			{
				OFFSET 0.015774 -0.398415 -0.042312
				CHANNELS 3 Zrotation Yrotation Xrotation
				JOINT RightToe
				{
					OFFSET -0.025372 -0.048144 0.123348
					CHANNELS 3 Zrotation Yrotation Xrotation
					End Site
					{
						OFFSET 0.000000 0.000000 0.000000
					}
				}
			}
		}
	}
	JOINT Spine
	{
		OFFSET -0.002533 0.108963 -0.026696
		CHANNELS 3 Zrotation Yrotation Xrotation
		JOINT Spine1
		{
			OFFSET 0.005487 0.135180 0.001092
			CHANNELS 3 Zrotation Yrotation Xrotation
			JOINT Spine2
			{
				OFFSET 0.001457 0.052922 0.025425
				CHANNELS 3 Zrotation Yrotation Xrotation
				JOINT Neck
				{
					OFFSET -0.002778 0.213870 -0.042857
					CHANNELS 3 Zrotation Yrotation Xrotation
					JOINT Head
					{
						OFFSET 0.005152 0.064970 0.051349
						CHANNELS 3 Zrotation Yrotation Xrotation
						End Site
						{
							OFFSET 0.000000 0.000000 0.000000
						}
					}
				}
				JOINT LeftShoulder
				{
					OFFSET 0.078845 0.121749 -0.034090
					CHANNELS 3 Zrotation Yrotation Xrotation
					JOINT LeftArm
					{
						OFFSET 0.090977 0.030469 -0.008868
						CHANNELS 3 Zrotation Yrotation Xrotation
						JOINT LeftForeArm
						{
							OFFSET 0.259612 -0.012772 -0.027456
							CHANNELS 3 Zrotation Yrotation Xrotation
							JOINT LeftHand
							{
								OFFSET 0.249234 0.008986 -0.001171
								CHANNELS 3 Zrotation Yrotation Xrotation
								End Site
								{
									OFFSET 0.000000 0.000000 0.000000
								}
							}
						}
					}
				}
				JOINT RightShoulder
				{
					OFFSET -0.081759 0.118833 -0.038615
					CHANNELS 3 Zrotation Yrotation Xrotation
					JOINT RightArm
					{
						OFFSET -0.096012 0.032551 -0.009143
						CHANNELS 3 Zrotation Yrotation Xrotation
						JOINT RightForeArm
						{
							OFFSET -0.253742 -0.013329 -0.021401
							CHANNELS 3 Zrotation Yrotation Xrotation
							JOINT RightHand
							{
								OFFSET -0.255298 0.007772 -0.005559
								CHANNELS 3 Zrotation Yrotation Xrotation
								End Site
								{
									OFFSET 0.000000 0.000000 0.000000
								}
							}
						}
					}
				}
			}
		}
	}
}
MOTION
Frames: 15
Frame Time: 0.050000
0.000000 0.902561 0.000000 -1.904502 4.682145 -4.628233 -6.690472 1.584985 11.094742 1.836412 -1.149929 15.757753 7.063096 11.216375 -12.104098 0.000000 0.000000 0.000000 -1.435855 2.172278 -27.810945 9.244839 -8.143348 78.524017 -9.615154 -22.240722 15.056084 0.000000 0.000000 0.000000 1.965927 -0.342583 6.008429 1.973449 -1.171626 3.096068 -4.710385 -6.884826 7.519636 1.343637 -0.426289 -11.642814 0.000000 0.000000 0.000000 -20.442405 -9.903478 4.628312 -35.561557 -5.171020 -3.343685 -91.240402 -60.328088 66.732157 0.000000 0.000000 0.000000 11.498436 4.651722 0.579043 35.503929 -15.583049 -7.517766 76.261170 45.460822 35.947153 0.000000 0.000000 0.000000 
-0.002458 0.934014 0.002809 -3.751922 4.312286 -2.433532 -3.105237 1.994495 18.474740 2.055145 -0.716781 8.677241 3.712163 8.455144 2.573002 0.000000 0.000000 0.000000 1.515695 3.289289 -31.913850 9.079803 -5.751689 61.606909 -11.215097 -25.504504 7.890464 0.000000 0.000000 0.000000 4.557349 -0.254410 3.064782 1.914460 -1.205236 4.118802 -4.490476 -10.989221 5.851945 -1.253024 0.981850 -11.521218 0.000000 0.000000 0.000000 -16.097798 -10.772113 5.772963 -37.753276 -9.337124 -2.380179 -112.059006 -62.777557 93.199679 0.000000 0.000000 0.000000 5.703871 2.150383 -0.239320 34.866110 -20.040263 -8.479860 83.036347 38.447100 31.181959 0.000000 0.000000 0.000000 
-0.006382 0.963378 0.007162 -2.885349 4.257281 0.122266 -3.016197 2.271376 21.042605 3.964253 -0.807420 5.422012 -1.449239 4.358327 16.478767 0.000000 0.000000 0.000000 1.727720 3.435180 -32.841197 6.910450 -2.488845 40.261365 -9.509926 -22.117837 10.002312 0.000000 0.000000 0.000000 2.597155 -0.095280 1.115787 5.091239 -2.391765 -0.749130 -6.921719 -14.379546 8.865462 -1.050961 0.503346 -11.977173 0.000000 0.000000 0.000000 -16.271177 -10.886487 6.745174 -35.017536 -8.526284 -2.957599 -116.417785 -62.001611 99.272619 0.000000 0.000000 0.000000 4.523228 1.169238 -0.599470 30.844737 -21.336334 -7.770224 84.002296 36.679434 28.483508 0.000000 0.000000 0.000000 
-0.010677 0.984575 0.011827 -2.944352 3.431991 1.475703 -1.193066 1.928895 20.692559 2.500668 -1.064826 12.915745 -1.662351 5.695705 22.103176 0.000000 0.000000 0.000000 5.459977 4.210897 -30.575798 0.792202 0.491779 23.924856 -7.920675 -19.239487 11.913952 0.000000 0.000000 0.000000 3.026596 -0.006475 -0.561827 5.002098 -2.499015 0.951339 -5.901275 -15.173244 6.820802 -3.772221 2.419656 -8.452084 0.000000 0.000000 0.000000 -14.351190 -9.663949 6.023219 -36.773355 -7.988706 -2.974256 -112.176334 -57.031838 89.528220 0.000000 0.000000 0.000000 2.653582 2.534582 0.183636 30.537169 -22.984830 -8.069727 88.946491 38.386492 32.016408 0.000000 0.000000 0.000000 
-0.015630 0.983414 0.018239 -2.353809 2.716033 3.108089 -0.734696 1.598357 17.335810 0.323739 -1.234531 26.052786 -0.880201 7.265445 24.687151 0.000000 0.000000 0.000000 6.447464 4.100459 -28.023763 1.023244 0.239869 13.311598 -7.065342 -17.889473 14.538729 0.000000 0.000000 0.000000 1.936676 0.091480 -2.296287 4.687151 -2.312915 0.784722 -4.502174 -15.120069 7.310675 -4.564165 2.794715 -10.831116 0.000000 0.000000 0.000000 -13.704072 -8.510338 5.521808 -36.272775 -3.815308 -4.164809 -108.212441 -55.314547 83.590115 0.000000 0.000000 0.000000 1.388425 2.129927 0.291455 32.869198 -23.380657 -9.011698 89.104322 40.819965 34.200873 0.000000 0.000000 0.000000 
-0.022523 0.957537 0.025792 -1.439824 0.709550 2.574682 -0.204590 1.058097 11.472647 -2.654750 -0.421598 47.019737 0.923217 8.814997 22.490662 0.000000 0.000000 0.000000 6.692115 3.969934 -26.087976 3.810672 -0.317094 20.541106 -8.320191 -20.357756 7.032054 0.000000 0.000000 0.000000 1.267185 0.067211 -1.734282 4.059191 -2.037691 1.341465 -4.377741 -12.843547 8.417779 -6.463849 4.061003 -13.049960 0.000000 0.000000 0.000000 -13.102073 -7.438177 4.650700 -35.724241 1.915532 -5.510684 -99.797623 -51.292557 69.255966 0.000000 0.000000 0.000000 3.162495 4.479772 0.780069 38.419767 -20.494556 -9.896003 85.946912 46.070138 38.424014 0.000000 0.000000 0.000000 
-0.029678 0.920856 0.026519 -1.580123 -1.276145 -0.225720 2.187519 0.309784 4.493513 -4.592722 1.589275 67.723704 2.112815 9.073891 16.438633 0.000000 0.000000 0.000000 9.233208 4.006818 -22.698070 3.507416 0.056437 31.879225 -8.989501 -21.966865 -3.123579 0.000000 0.000000 0.000000 0.569285 -0.085645 1.771176 3.093266 -1.616912 2.288798 -1.690347 -7.192043 8.205460 -4.835052 3.332500 -14.861731 0.000000 0.000000 0.000000 -14.641842 -8.185667 4.339742 -34.846262 6.219246 -6.276252 -84.390418 -49.141279 50.991982 0.000000 0.000000 0.000000 7.168460 7.277337 1.594510 40.730522 -13.990912 -8.358031 88.314672 55.156784 51.835861 0.000000 0.000000 0.000000 
-0.034268 0.900220 0.020287 -1.234043 -4.224583 -1.967170 3.164033 -0.519365 -8.386924 -6.067953 5.748686 84.255851 5.428583 13.529872 13.318595 0.000000 0.000000 0.000000 10.408334 2.806164 -15.293774 1.755473 1.312314 35.579723 -8.798121 -21.010852 -10.088384 0.000000 0.000000 0.000000 0.431526 -0.234279 5.424025 1.342586 -0.709399 2.166128 -0.284857 -1.759016 9.146466 -5.774875 4.333717 -15.672817 0.000000 0.000000 0.000000 -14.649308 -6.868536 2.916852 -33.316413 10.667594 -6.907143 -71.925772 -44.558539 36.632101 0.000000 0.000000 0.000000 9.299711 10.879873 3.425344 41.194509 -3.645872 -5.297388 88.612381 65.387013 64.890287 0.000000 0.000000 0.000000 
-0.036337 0.910241 0.015689 -0.030462 -6.217329 -2.300032 2.557409 -1.362771 -23.593314 -5.826325 7.332377 88.821574 7.296199 16.278722 12.285773 0.000000 0.000000 0.000000 9.604670 0.292891 -2.748853 -1.448622 2.132398 27.033809 -7.876006 -16.731753 -13.478601 0.000000 0.000000 0.000000 -0.822517 -0.218233 7.409191 -0.840980 0.403210 0.232626 2.122913 5.176602 11.460673 -4.418238 4.119750 -15.816718 0.000000 0.000000 0.000000 -13.916260 -5.388735 1.166587 -31.254973 15.331117 -7.341505 -70.825621 -41.348561 31.652223 0.000000 0.000000 0.000000 5.043245 11.997927 4.462980 43.225366 3.341616 -3.556947 107.572308 71.314820 93.703836 0.000000 0.000000 0.000000 
-0.037795 0.940478 0.018582 2.475541 -7.876393 -0.468906 -0.416004 -2.499272 -33.873017 -5.879467 6.875891 76.994969 7.222587 16.068987 13.561398 0.000000 0.000000 0.000000 5.961083 -1.213639 7.374726 -3.950972 2.044707 18.031473 -5.202037 -11.088526 -4.055561 0.000000 0.000000 0.000000 -3.081223 -0.014819 4.846383 -3.433547 1.645302 -0.269999 3.731185 11.008583 10.777625 -1.129377 2.319421 -12.629737 0.000000 0.000000 0.000000 -12.619978 -4.651193 0.034684 -26.376167 19.759316 -6.651624 -74.952112 -39.755345 30.990266 0.000000 0.000000 0.000000 2.191596 12.237681 4.655364 43.724489 6.742096 -2.226503 120.237331 69.417133 108.974600 0.000000 0.000000 0.000000 
-0.039426 0.976314 0.028345 3.383843 -8.416998 1.519133 -3.305683 -3.442667 -36.055158 -3.912294 2.880414 52.872414 6.630242 14.787764 13.838147 0.000000 0.000000 0.000000 3.306470 -1.673424 14.157022 -4.744966 1.676075 12.972440 -2.640381 -10.839972 12.523936 0.000000 0.000000 0.000000 -3.808394 0.061662 2.481150 -4.582270 2.158216 -0.957357 3.508925 15.093524 10.438962 2.313685 0.029005 -9.931253 0.000000 0.000000 0.000000 -10.063403 -3.648059 -0.663177 -25.811220 22.425624 -6.938609 -79.826455 -39.865779 32.311224 0.000000 0.000000 0.000000 0.119183 12.108884 4.537189 43.026073 7.562879 -1.692782 123.420846 64.476224 110.292468 0.000000 0.000000 0.000000 
-0.041402 0.999711 0.042007 3.574623 -5.855708 2.879139 -6.451157 -4.220048 -32.038543 0.068472 -0.498654 25.718288 3.143435 9.654716 15.068013 0.000000 0.000000 0.000000 1.965519 -1.840544 17.248932 -3.274959 1.664577 16.745690 -2.172263 -12.172065 23.360160 0.000000 0.000000 0.000000 -3.818155 0.097261 -1.024240 -5.835523 2.814414 0.285446 4.139839 14.621216 8.621419 2.558716 -0.546623 -7.273200 0.000000 0.000000 0.000000 -10.559885 -4.241657 -0.661714 -24.097651 24.508456 -6.702298 -86.696969 -40.697275 36.918378 0.000000 0.000000 0.000000 -0.588629 12.160327 4.500487 42.759913 4.646583 -2.444499 121.939838 58.100985 101.571910 0.000000 0.000000 0.000000 
-0.042874 0.995105 0.055496 2.227576 -3.932084 1.896424 -7.729318 -3.879081 -26.012398 2.111341 -0.842454 12.745008 0.521352 6.113996 16.215705 0.000000 0.000000 0.000000 2.589261 -2.029440 17.138039 -0.165019 1.904252 33.015163 -4.507167 -15.415475 25.482233 0.000000 0.000000 0.000000 -2.936758 0.085884 -2.098185 -4.516347 2.284106 3.273815 1.652782 14.581349 6.422499 3.794952 -1.537325 -6.442068 0.000000 0.000000 0.000000 -8.513681 -4.703624 -0.293919 -26.777254 22.622271 -7.186543 -93.188154 -44.222605 43.971590 0.000000 0.000000 0.000000 0.720968 12.113236 4.767486 42.020302 2.512702 -3.046153 117.908838 53.269024 91.272884 0.000000 0.000000 0.000000 
-0.042058 0.961155 0.064783 1.560879 -2.751012 -1.004743 -9.942344 -3.464976 -19.992174 2.785601 -1.338434 18.974727 3.085972 8.040450 6.004501 0.000000 0.000000 0.000000 0.348280 -1.216003 12.431921 5.885937 -0.439117 58.817795 -6.906438 -18.431600 23.997630 0.000000 0.000000 0.000000 -2.551156 0.001816 0.725487 -3.558600 1.766072 2.304554 1.182650 12.691124 8.525614 4.480171 -1.703216 -8.510050 0.000000 0.000000 0.000000 -11.951629 -6.251972 -0.076359 -27.312232 16.795276 -6.098571 -100.854757 -48.016175 54.810136 0.000000 0.000000 0.000000 1.439055 12.028800 4.743243 41.342696 -0.850046 -4.320155 115.240312 48.863768 81.654893 0.000000 0.000000 0.000000 
-0.040991 0.919370 0.063998 1.833172 -1.922082 -3.517962 -11.900919 -2.991875 -15.285464 2.365520 -1.735275 29.011490 5.249892 9.705128 -5.915646 0.000000 0.000000 0.000000 -3.768892 -0.138783 3.254865 9.714326 -4.574015 82.308201 -7.249706 -18.626278 18.525507 0.000000 0.000000 0.000000 -2.895695 -0.070066 4.138033 -2.793500 1.392563 3.177291 -0.317876 7.788103 7.908105 2.678064 -0.116409 -13.186768 0.000000 0.000000 0.000000 -16.435861 -5.432984 -0.274462 -25.476744 9.469234 -4.342129 -108.353856 -51.402903 67.986594 0.000000 0.000000 0.000000 3.041893 11.734175 4.565267 41.492845 -3.756508 -5.370612 106.864122 47.958899 68.329267 0.000000 0.000000 0.000000 
